<svg xmlns="http://www.w3.org/2000/svg" width="256" height="256" viewBox="0 0 100 100"><rect width="100" height="100" rx="20" fill="#554bff"></rect><path fill="#fff" d="M57.31 67.23L57.31 67.23Q56.15 68.15 54.29 68.73Q52.44 69.31 50 69.31L50 69.31Q46.98 69.31 44.95 68.56Q42.92 67.81 42.11 65.83L42.11 65.83Q37.36 54.00 34.11 45.65Q30.86 37.30 28.89 31.38L28.89 31.38L28.31 31.38Q27.96 39.15 27.67 45.65Q27.38 52.15 27.15 58.35Q26.92 64.56 26.63 70.94Q26.34 77.32 25.87 84.74L25.87 84.74Q24.71 85.09 22.97 85.44Q21.23 85.79 19.26 85.79L19.26 85.79Q11.49 85.79 11.49 79.99L11.49 79.99Q11.49 78.13 11.66 74.24Q11.84 70.36 12.13 65.20Q12.42 60.03 12.82 53.89Q13.23 47.74 13.63 41.47Q14.04 35.21 14.50 29.12Q14.97 23.03 15.32 17.81L15.32 17.81Q16.24 16.65 18.74 15.43Q21.23 14.21 25.18 14.21L25.18 14.21Q29.58 14.21 32.31 15.66Q35.04 17.11 36.43 20.48L36.43 20.48Q37.94 24.07 39.62 28.37Q41.30 32.66 43.04 37.18Q44.78 41.71 46.46 46.06Q48.14 50.41 49.65 54.23L49.65 54.23L50.12 54.23Q54.06 43.33 57.95 33.12Q61.83 22.91 64.73 15.84L64.73 15.84Q66.12 15.14 68.33 14.68Q70.53 14.21 72.85 14.21L72.85 14.21Q77.14 14.21 79.70 15.49Q82.25 16.77 82.83 19.32L82.83 19.32Q83.29 21.52 83.87 26.34Q84.45 31.15 85.03 37.30Q85.61 43.45 86.19 50.41Q86.77 57.37 87.24 63.80Q87.70 70.24 88.05 75.58Q88.40 80.91 88.51 83.93L88.51 83.93Q87.00 84.86 85.32 85.32Q83.64 85.79 81.20 85.79L81.20 85.79Q78.19 85.79 75.93 84.57Q73.66 83.35 73.43 79.99L73.43 79.99Q72.97 72.68 72.62 65.66Q72.27 58.64 72.04 52.38Q71.81 46.11 71.58 40.84Q71.34 35.56 71.23 31.73L71.23 31.73L70.65 31.73Q68.79 37.18 65.54 45.59Q62.30 54.00 57.31 67.23Z"></path></svg>